<svg id="Layer_2" data-name="Layer 2" xmlns="http://www.w3.org/2000/svg" viewBox="0 0 200 200"><defs><style>.cls-1,.cls-2{fill:none;stroke:#1d1d1b;stroke-miterlimit:10;stroke-width:16px;}.cls-2{stroke-linecap:round;}</style></defs><path class="cls-1" d="M134.3,98,63.6,168.6a92.1,92.1,0,0,1-35.7,22.1l-1,.3c-5.3,1.7-11.2.7-14.8-3l-.4-.4c-3.4-3.5-4.4-9.2-2.6-14.5l.3-1a90.7,90.7,0,0,1,22-35.7l70.7-70.7"/><polyline class="cls-2" points="150.1 110.9 122.6 83.5 116.5 77.4 89.1 49.9"/><path class="cls-2" d="M135.1,96c6-5,10.8-7.9,18.5-13.1s13.4-6.4,21.8-11.4a35.6,35.6,0,0,0,6.3-4.7,34.3,34.3,0,0,0,10.1-24.3V41a34.7,34.7,0,0,0-10.1-22.5h0A34.4,34.4,0,0,0,159,8.2h-1.5a33.9,33.9,0,0,0-24.2,10.1,31.8,31.8,0,0,0-4.8,6.3c-5,8.4-6.6,14.6-11.4,21.8S109,58.9,104,64.9"/></svg>