<svg id="Layer_1" data-name="Layer 1" xmlns="http://www.w3.org/2000/svg" viewBox="0 0 176.7 353.3"><defs><style>.cls-1{fill:#07040c;}</style></defs><path class="cls-1" d="M200.2,91.1h-82l2.4,8.2a9.1,9.1,0,0,0,8.7,6.4h59.8a9,9,0,0,0,8.6-6.4l2.5-8.2Z" transform="translate(-70.8 -84.9)"/><rect class="cls-1" y="48.5" width="7.5" height="14.07" rx="2.2"/><rect class="cls-1" y="72.5" width="7.5" height="26.11" rx="2.2"/><rect class="cls-1" y="105.6" width="7.5" height="26.11" rx="2.2"/><rect class="cls-1" x="169.2" y="82.8" width="7.5" height="40.92" rx="2.2"/><path class="cls-1" d="M222,91.9a17.2,17.2,0,0,1,17.2,17.3V414A17.2,17.2,0,0,1,222,431.2H96.4A17.2,17.2,0,0,1,79.1,414V109.2A17.2,17.2,0,0,1,96.4,91.9H222m0-7H96.4a24.3,24.3,0,0,0-24.3,24.3V414a24.2,24.2,0,0,0,24.3,24.2H222A24.2,24.2,0,0,0,246.2,414V109.2A24.2,24.2,0,0,0,222,84.9Z" transform="translate(-70.8 -84.9)"/></svg>