<svg id="Layer_1" data-name="Layer 1" xmlns="http://www.w3.org/2000/svg" viewBox="0 0 175.4 350.8"><defs><style>.cls-1{fill:#07040c;}</style></defs><rect class="cls-1" x="240" y="142.6" width="7.5" height="26.11" rx="2.2" transform="translate(415.4 224.5) rotate(-180)"/><rect class="cls-1" x="240" y="175.7" width="7.5" height="26.11" rx="2.2" transform="translate(415.4 290.6) rotate(-180)"/><rect class="cls-1" x="167.9" y="144.3" width="7.5" height="40.92" rx="2.2"/><path class="cls-1" d="M159.2,96.3a4.9,4.9,0,0,0-5,4.9,5,5,0,1,0,9.9,0,4.9,4.9,0,0,0-4.9-4.9Z" transform="translate(-72.1 -86.8)"/><path class="cls-1" d="M222,86.8H96.4a24.2,24.2,0,0,0-24.3,24.1V413.5a24.2,24.2,0,0,0,24.3,24.1H222a24.1,24.1,0,0,0,24.2-24.1V110.9A24.1,24.1,0,0,0,222,86.8ZM239.2,331v74.2A17.1,17.1,0,0,1,222,422.3H96.4a17.1,17.1,0,0,1-17.3-17.1V110.9A17.1,17.1,0,0,1,96.4,93.8H222a17.1,17.1,0,0,1,17.2,17.1V331Z" transform="translate(-72.1 -86.8)"/></svg>