<?xml version="1.0" encoding="utf-8"?><svg version="1.1" id="Layer_1" xmlns="http://www.w3.org/2000/svg" xmlns:xlink="http://www.w3.org/1999/xlink" x="0px" y="0px" viewBox="0 0 122.88 121.92" style="enable-background:new 0 0 122.88 121.92" xml:space="preserve"><style type="text/css"><![CDATA[
	.st0{fill:#0066B1;}
]]></style><g><path d="M61.44,0C27.51,0,0,27.29,0,60.96c0,33.67,27.51,60.96,61.44,60.96c33.93,0,61.44-27.29,61.44-60.96 C122.88,27.3,95.37,0,61.44,0L61.44,0z M118.88,60.96c0,31.48-25.72,57-57.44,57C29.71,117.96,4,92.44,4,60.96 c0-31.48,25.72-57,57.44-57C93.17,3.96,118.88,29.48,118.88,60.96L118.88,60.96z"/><path d="M61.44,24.81v1.98c18.99,0,34.44,15.33,34.44,34.17l2,0C97.88,41,81.56,24.81,61.44,24.81L61.44,24.81L61.44,24.81z M61.44,95.13C42.45,95.13,27,79.8,27,60.96h-2c0,19.96,16.31,36.15,36.44,36.15V95.13L61.44,95.13z M61.44,95.13L61.44,95.13 L61.44,95.13L61.44,95.13z"/><path d="M91.22,35.1c0.83,0.89,2.04,2.32,2.71,3.19l12.44-7.84c-0.62-0.81-1.61-2.03-2.35-2.9l-7.88,5.17l-0.54,0.46l0.4-0.58 l3.48-6.89l-2.46-2.44l-6.95,3.45l-0.58,0.4l0.46-0.53l5.21-7.81c-0.92-0.77-1.8-1.48-2.92-2.34l-7.9,12.33 c1,0.76,2.32,1.88,3.16,2.65l7.44-3.83l0.47-0.35l-0.35,0.47L91.22,35.1L91.22,35.1L91.22,35.1z M62.99,19.47l3.4-7.55l0.21-0.67 l-0.06,0.7l0.36,10.1c1.19,0.11,2.43,0.28,3.64,0.48L69.98,7.56c-1.7-0.19-3.39-0.32-5.08-0.39l-3.35,8.25l-0.12,0.61l-0.12-0.61 l-3.35-8.25c-1.69,0.07-3.38,0.2-5.08,0.39l-0.55,14.96c1.21-0.2,2.44-0.36,3.64-0.48l0.36-10.1l-0.06-0.7l0.22,0.67l3.4,7.56 L62.99,19.47L62.99,19.47z M35.49,31.38c1.97-2.05,3.08-4.43,1.11-6.69c-1.07-1.23-2.87-1.5-4.35-0.89l-0.15,0.06l0.05-0.13 c0.22-0.58,0.36-2.45-1.24-3.73c-0.78-0.63-1.76-0.86-2.75-0.76c-1.85,0.19-3.26,1.44-7.13,5.71c-1.17,1.29-2.87,3.33-3.88,4.64 l10.62,9.99C31.28,35.72,32.72,34.28,35.49,31.38L35.49,31.38z M21.64,28.94c2.14-2.6,4.41-4.95,5.44-5.88 c0.33-0.29,0.68-0.59,1.11-0.7c0.7-0.19,1.42,0.3,1.58,1.01c0.16,0.71-0.29,1.39-0.79,1.95c-1.13,1.27-5.28,5.57-5.28,5.57 L21.64,28.94L21.64,28.94L21.64,28.94z M25.8,32.85c0,0,4.04-4.24,5.36-5.59c0.52-0.54,0.86-0.87,1.22-1.04 c0.47-0.23,0.97-0.27,1.43,0.03c0.45,0.3,0.65,0.81,0.54,1.32c-0.13,0.61-0.63,1.18-1.04,1.62l-5.35,5.69L25.8,32.85L25.8,32.85 L25.8,32.85z"/><path class="st0" d="M61.44,24.81v36.15H25C25,40.98,41.3,24.81,61.44,24.81L61.44,24.81z M97.88,60.96 c0,19.98-16.3,36.15-36.44,36.15V60.96H97.88L97.88,60.96z"/></g></svg>