<?xml version="1.0" encoding="utf-8"?>
<!-- Generator: Adobe Illustrator 24.3.0, SVG Export Plug-In . SVG Version: 6.00 Build 0)  -->
<svg version="1.1" id="Layer_1" xmlns="http://www.w3.org/2000/svg" xmlns:xlink="http://www.w3.org/1999/xlink" x="0px" y="0px"
	 viewBox="0 0 512 512" style="enable-background:new 0 0 512 512;" xml:space="preserve">
<style type="text/css">
	.st0{fill:#FFFFFF;}
	.st1{fill:#F5821F;}
	.st2{fill:#E11383;}
	.st3{fill:#683817;}
</style>
<g id="XMLID_1_">
	<path class="st0" d="M298.9,209.22L298.9,209.22l0.14-0.14L298.9,209.22 M141.98,347.07L141.98,347.07l-0.14-0.14L141.98,347.07z
		 M356.37,207.37L356.37,207.37l0.14,0.28L356.37,207.37z M483.13,272.53c3.13-4.13,3.7-7.82,3.7-13.51v-18.07
		c2.13,1.71,4.41,2.42,6.12,2.85c2.7,0.57,11.81,1.14,16.93-12.09c1.42-3.84,2.28-8.39,2.28-11.95c0-8.68-6.12-17.92-16.08-17.92
		c-5.41,0-9.67,3.13-12.52,7.4l-0.71-1l-0.14-0.14c-3.27-3.98-8.11-6.26-13.09-6.26c-5.69,0-11.1,2.85-14.08,7.54
		c-1.14,1.85-1.99,3.56-2.42,5.41c-2.7-3.27-4.98-6.12-4.98-6.12c-3.56-4.55-7.82-6.69-12.95-6.69c-7.11,0-12.8,3.7-15.65,9.25
		c-0.71-1.28-1.42-2.42-2.56-3.7c-3.27-3.7-7.82-5.69-12.8-5.69c-4.84,0-9.67,1.99-12.66,5.69c-1,1-1.56,1.99-2.28,2.99
		c-2.99-5.12-8.68-8.68-14.94-8.68c-5.69,0-10.81,2.85-14.23,7.82c0,0-0.43,0.57-1,1.56c-0.71-1.14-1.42-2.42-2.42-3.56
		c-3.27-3.7-7.97-5.83-12.95-5.83c-6.83,0-12.52,3.7-15.22,9.53c-0.57-1.14-1.14-2.13-1.99-3.27l-0.14-0.14
		c-3.27-3.98-8.11-6.26-13.09-6.26c-5.69,0-10.95,2.85-14.08,7.54c-1.14,1.85-1.99,3.56-2.42,5.41c-2.7-3.27-4.98-6.12-4.98-6.12
		c-3.7-4.55-7.97-6.69-12.95-6.69c-6.83,0-12.52,3.41-15.36,8.82c-0.57-0.85-1.14-1.71-1.85-2.56c-3.27-3.84-8.39-6.26-13.37-6.26
		c-5.12,0-10.1,2.42-13.37,6.54c-1.28,1.56-1.99,2.99-2.7,4.55c-0.71-1.85-1.85-3.84-3.56-5.69c-3.27-3.41-7.82-5.41-12.52-5.41
		c-4.98,0-10.24,2.56-13.37,6.69l-0.14,0.14c-2.7,3.56-3.27,6.54-3.56,11.1c-1.85-2.7-4.13-5.41-6.54-7.54
		c-7.4-6.54-16.22-9.67-27.31-9.67h-12.66c-8.82,0-15.36,4.13-17.78,11.52c-0.57,1.85-0.71,2.99-0.85,5.69h-0.28
		c-1.85-10.1-10.67-17.78-21.2-17.78H54.07c-0.43-2.28-1.28-4.13-2.28-5.97c3.27,0.57,6.83,0.14,10.24-1.85l-2.13,0.57l2.7-1h0.14
		l0,0l0.14-0.14c4.69-3.56,7.4-8.96,7.4-14.8c0-1.56-0.14-2.99-0.57-4.41c-1.85-7.4-7.54-12.52-14.94-13.8
		c-3.56-0.57-10.95,0.14-16.93,4.55c-4.55,3.41-7.54,8.39-8.25,14.37c-0.14,1-0.28,1.85-0.28,2.7c0,2.13,0.43,4.13,1,5.83
		c-5.97-2.85-12.95-2.28-19.35,2.13h-0.14c-6.69,4.84-8.68,10.39-9.25,14.23c-0.28,2.85,0,5.83,1.14,8.54
		c-1.56,3.27-2.56,6.69-2.56,10.39v105.13c0,11.95,9.67,21.77,21.62,21.77h90.62c10.53,0,19.35-7.54,21.2-17.5h1v1.28
		c0.14,1.42,0.14,2.42,0.57,3.56c1.14,3.98,3.41,7.11,6.97,9.39c3.56,2.28,6.97,2.85,12.52,2.85h8.68c4.55,0,8.82-0.28,11.81-0.85
		h0.14c6.69-1.42,13.09-4.69,18.07-9.25l1.28-1.28l0.14-0.14c1.85-1.85,3.56-3.98,4.84-6.26c1.28,2.13,2.7,4.13,4.41,6.12
		c7.54,8.39,18.35,13.37,29.73,13.37c11.24,0,22.05-4.84,29.73-13.37l0.85-1.14c0.57,2.28,1.42,4.41,2.85,6.4l0.14,0.14
		c3.27,4.13,8.39,6.69,13.51,6.69c4.98,0,9.82-2.28,13.09-6.26l0.14-0.14c1.71-2.28,2.85-4.41,3.27-6.97l5.12,6.54
		c3.41,4.41,7.97,6.83,13.51,6.83c5.26,0,10.24-2.42,13.37-6.4c1.42-1.99,2.42-3.98,2.99-6.26l0,0l0.14,0.14
		c6.26,8.54,16.36,13.66,26.75,13.66c9.53,0,18.49-4.13,24.9-11.52l1.85-2.28c4.41-5.83,6.4-12.8,6.4-21.77v-10.53
		c1.56,0.57,3.41,0.85,5.41,0.85c0,8.39,0,24.9,0,24.9l0.14,2.85c0.14,3.7,1.14,6.26,2.85,8.96l0.14,0.28
		c3.27,4.41,8.39,6.97,13.94,6.97c5.98,0,11.1-2.85,14.23-7.82c1.56-2.56,2.42-5.12,2.7-8.25c0,0,0-1.14,0.14-1.99h1.85
		c0.14,1.42,0.71,2.7,1.28,4.13c4.13,9.1,15.36,15.08,28.74,15.08c9.53,0,16.79-2.7,22.34-8.25c1.85-1.99,3.41-4.13,4.69-6.4
		c2.13-4.13,3.27-8.68,3.27-13.23c0-7.54-2.85-14.51-7.82-19.06c2.42-2.13,4.27-4.98,4.98-8.39c1.85,1.42,4.13,2.28,6.54,2.28
		c4.98,0,9.25-3.56,10.1-8.54l0,0v-0.43l0.14-1.42c0-5.83-4.55-10.39-10.39-10.39c-3.98,0-7.4,2.28-9.25,5.41
		c-1.85-2.85-4.84-5.41-8.25-7.11C481.14,274.95,482.13,273.81,483.13,272.53z M497.35,292.73L497.35,292.73L497.35,292.73
		L497.35,292.73z M455.53,209.22L455.53,209.22L455.53,209.22L455.53,209.22z M391.23,207.51L391.23,207.51L391.23,207.51
		L391.23,207.51z"/>
	<path class="st1" d="M247.97,208.51c-3.13,0-6.12,1.42-7.97,3.98c-1.85,2.28-2.28,3.7-2.28,8.39v25.04c0,4.41-1.99,6.97-5.69,6.97
		c-3.56,0-5.69-2.85-5.69-7.26v-24.75c0-4.55-0.71-6.83-2.7-8.96c-1.99-1.99-4.84-3.27-7.68-3.27c-2.99,0-6.12,1.56-8.25,3.98
		c-1.85,2.42-2.13,3.84-2.13,9.82v22.05c0,8.39,1.14,12.66,5.12,18.07c4.98,6.83,13.09,10.81,21.34,10.81
		c7.54,0,14.8-3.41,19.92-9.1c4.41-5.12,6.54-11.24,6.54-19.77v-22.34c0-5.69-0.43-7.54-2.42-9.96
		C254.23,210.07,251.1,208.51,247.97,208.51 M196.19,229.28c-1.71-4.69-4.55-8.82-8.39-12.23c-6.12-5.41-13.37-7.97-22.76-7.97
		h-12.66c-5.97,0-9.96,2.42-11.38,6.83c-0.43,1.42-0.43,1.99-0.43,7.26v34.57c0,4.41,0,5.41,0.28,6.83
		c0.57,2.42,1.99,4.13,4.41,5.69c1.99,1.28,3.84,1.71,8.82,1.71h8.68c4.41,0,8.11-0.28,10.67-0.71c5.41-1.14,10.81-3.84,14.8-7.54
		c6.4-5.98,10.1-14.37,10.1-23.05C198.18,236.54,197.47,232.69,196.19,229.28z M169.87,229.28l1,0.43
		c4.13,1.99,6.69,6.26,6.69,10.95c0,3.84-1.99,7.68-5.12,9.96c-2.42,1.71-4.13,1.99-11.24,1.99v-24.33h1.71
		C166.17,228.28,168.16,228.57,169.87,229.28L169.87,229.28z M312.98,208.51c-3.41,0-6.69,1.85-8.39,4.41
		c-1.56,2.13-1.99,4.13-1.99,8.25v11.67l-2.99-3.7l-13.51-16.5c-2.28-2.85-4.69-4.13-7.68-4.13c-6.54,0.14-10.81,4.55-10.81,11.24
		v39.83c0,4.55,0.43,6.54,2.13,8.82c1.99,2.56,5.12,4.13,8.39,4.13c3.13,0,6.12-1.42,7.97-3.7c1.85-2.28,2.28-4.13,2.28-8.25v-13.23
		l16.36,21.05c2.13,2.85,4.98,4.27,8.25,4.27s6.12-1.42,8.11-3.84c1.85-2.28,2.28-4.41,2.28-9.39v-38.41c0-3.84-0.71-6.12-2.42-8.25
		C318.96,209.93,316.11,208.51,312.98,208.51z M372.45,239.67l7.26-10.53l3.27-4.84c1.14-1.56,1.56-3.56,1.56-5.41
		c0-5.55-4.84-10.39-10.53-10.39c-3.56,0-6.54,1.71-8.54,4.84l-10.81,15.93l-0.71,1.14v-9.96c0-3.7-0.71-6.12-2.85-8.25
		c-1.85-2.13-4.84-3.56-7.82-3.56c-6.26,0-10.39,4.69-10.39,11.67v40.4c0,7.26,4.13,11.81,10.53,11.81
		c6.26,0,10.39-4.69,10.39-11.95v-10.95l15.65,19.77c1.42,1.85,4.41,3.13,7.26,3.13c5.69,0,10.39-4.84,10.39-10.53
		c0-2.13-0.71-3.98-1.99-5.69L372.45,239.67z M469.47,208.51c-3.41,0-6.69,1.85-8.39,4.41c-1.56,2.13-1.99,4.13-1.99,8.25v11.67
		l-2.99-3.7l-13.37-16.5c-2.42-2.85-4.69-4.13-7.68-4.13c-6.54,0-10.81,4.41-10.81,11.1v39.83c0,4.55,0.43,6.54,2.13,8.82
		c1.99,2.56,5.12,3.98,8.39,3.98c3.13,0,6.12-1.42,7.97-3.7c1.85-2.28,2.28-4.13,2.28-8.25V247.2l16.5,21.05
		c2.13,2.85,4.84,4.27,8.25,4.27c3.27,0,6.26-1.42,8.11-3.84c1.85-2.28,2.28-4.41,2.28-9.39v-38.41c0-3.84-0.71-6.12-2.42-8.25
		C475.59,209.93,472.74,208.51,469.47,208.51z M496.07,208.51c-5.41,0-9.25,6.54-9.25,12.09c0,2.42,0,5.69,0.57,8.68
		c0.71,3.7,2.56,7.11,6.69,7.82c4.41,0.85,7.4-3.27,9.25-7.82l0,0c1.28-3.41,1.99-7.26,1.99-9.67
		C505.32,214.2,501.48,208.51,496.07,208.51z M404.03,208.51c-2.99,0-5.83,1.28-7.68,3.41c-2.13,2.28-2.7,4.27-2.7,9.53v38.98
		c0,4.41,0.57,6.54,2.7,8.68c1.85,1.99,4.84,3.27,7.68,3.27c2.7,0,5.69-1.28,7.68-3.56c1.99-1.99,2.7-4.41,2.7-8.39v-38.98
		c0-5.12-0.71-7.26-2.85-9.67C409.72,209.65,407.02,208.51,404.03,208.51z"/>
	<path id="XMLID_25_" class="st2" d="M385.25,289.31c-0.14-2.7-0.85-3.98-2.28-5.69c-1.85-2.28-4.98-3.7-7.97-3.7
		c-3.13,0-5.98,1.42-7.97,3.98c-1.42,1.71-1.99,2.85-2.13,5.55c0,0.71-0.14,1.56-0.14,2.7v25.04c0,4.41-2.13,7.11-5.83,7.11
		s-5.83-2.85-5.83-7.54v-24.9c0-1,0-1.99-0.14-2.7c-0.28-2.85-1.14-4.41-2.7-6.26c-1.85-1.99-4.69-3.27-7.54-3.27
		c-2.99,0-6.12,1.56-8.11,3.98c-1.28,1.56-1.85,2.85-1.99,5.41c-0.14,1.14-0.14,2.42-0.14,4.27v22.19c0,8.25,1.14,12.52,4.84,17.64
		l0.14,0.14c4.98,6.69,12.95,10.95,21.2,10.95c7.4,0,14.8-3.41,19.92-9.25c0.57-0.71,1.14-1.28,1.42-1.85
		c3.41-4.69,4.98-10.39,4.98-17.78v-22.48C385.39,291.73,385.39,290.45,385.25,289.31"/>
	<path class="st2" d="M498.49,288.18c1.56,0,2.85-0.71,2.85-2.42c0-0.71-0.28-1.56-1.14-1.99c-0.71-0.43-1.42-0.43-2.28-0.43h-3.98
		v9.1h1.14v-4.13h1.99l0.57,1.14l1.99,3.13h1.28l-1.99-3.13L498.49,288.18 M496.93,287.32h-1.71v-3.27h2.56
		c1.14,0,2.28,0.14,2.28,1.56C500.2,287.61,498.21,287.32,496.93,287.32z"/>
	<path id="XMLID_22_" class="st2" d="M505.18,289.31c0.14-0.43,0.14-1,0.14-1.42c0-4.55-3.56-8.11-8.11-8.11s-8.25,3.56-8.25,8.11
		c0,0.57,0,1,0.14,1.42c0.71,3.84,4.13,6.69,7.97,6.69C501.2,296,504.47,293.16,505.18,289.31h-1c-0.57,3.27-3.56,5.83-6.97,5.83
		c-3.56,0-6.4-2.42-7.11-5.83c-0.14-0.43-0.14-1-0.14-1.42c0-3.98,3.27-7.11,7.11-7.11c3.98,0,7.11,3.27,7.11,7.11
		c0,0.57,0,1-0.14,1.42H505.18"/>
	<path class="st2" d="M189.64,333.56c5.69-5.83,8.96-13.8,8.96-21.91c0-3.84-0.71-7.68-1.99-11.24l0,0
		c-1.56-4.13-4.13-7.97-7.26-11.1l0,0l-1.14-1c-6.12-5.41-13.37-7.97-22.76-7.97h-12.8c-5.97,0-9.82,2.28-11.24,6.69
		c-0.14,0.71-0.28,1.14-0.43,2.13l0,0c-0.14,1-0.14,2.42-0.14,4.98v34.71c0,2.28,0,3.56,0,4.41c0,1,0.14,1.56,0.28,2.28
		c0.57,2.42,1.99,4.13,4.27,5.55c1.85,1.28,3.7,1.71,8.68,1.71h8.82c4.41,0,8.11-0.28,10.67-0.71c5.41-1.14,10.67-3.84,14.65-7.54
		L189.64,333.56L189.64,333.56 M161.47,300.41v-1h1.85c3.41,0,5.55,0.28,7.4,1l0,0l0.71,0.28c4.13,1.99,6.83,6.26,6.83,10.95
		c0,3.98-1.99,7.97-5.12,10.1c-2.42,1.71-4.27,1.99-11.38,2.13h-0.14L161.47,300.41L161.47,300.41z"/>
	<path class="st2" d="M264.61,300.41c-1.56-4.13-3.84-7.97-6.83-11.1c-6.12-6.4-14.65-10.39-24.18-10.39s-18.21,3.98-24.33,10.39
		l0,0c-2.99,3.27-5.26,6.97-6.69,10.95l0,0c-1.28,3.41-1.99,7.11-1.99,10.95c0,8.54,3.13,16.36,8.39,22.19l0,0
		c5.97,6.83,14.8,11.1,24.75,11.1c9.67,0,18.64-4.27,24.61-11.1c5.26-5.83,8.39-13.51,8.39-21.91
		C266.61,307.67,265.89,303.97,264.61,300.41 M233.6,324.45c-6.97,0-12.52-5.83-12.52-12.66c0-4.98,3.13-9.39,7.54-11.24
		c1.56-0.71,3.27-1,4.98-1c1.85,0,3.41,0.28,4.98,1c4.41,1.99,7.54,6.26,7.54,11.24C246.26,318.62,240.57,324.45,233.6,324.45z"/>
	<path id="XMLID_17_" class="st2" d="M325.79,289.31c-0.14-2.28-1-3.98-2.28-5.69c-1.99-2.28-4.69-3.7-7.82-3.7
		c-3.27,0-6.54,1.85-8.39,4.41c-1.14,1.56-1.42,2.85-1.71,4.98l0,0c-0.14,0.85-0.14,1.99-0.14,3.13v12.23l-3.56-4.41l-8.96-11.1
		l-4.41-5.41c-2.28-2.85-4.55-4.13-7.54-4.13c-5.83,0-10.1,3.7-10.53,9.39c0,0.57-0.14,1.14-0.14,1.42v39.83
		c0,1.14,0,1.99,0.14,2.85c0.14,2.7,0.71,4.13,1.99,5.98c1.85,2.42,4.98,3.98,8.25,3.98c3.13,0,5.98-1.42,7.82-3.7
		c1.56-1.85,2.13-3.41,2.28-6.26c0-0.57,0-1.28,0-1.99v-13.8l12.23,15.65l4.41,5.69c2.13,2.85,4.84,4.13,8.11,4.13
		c3.27,0,6.12-1.42,7.97-3.84c1.28-1.71,1.85-3.27,2.13-6.12c0.14-1,0.14-1.99,0.14-3.27v-37.98
		C325.93,290.88,325.93,290.03,325.79,289.31"/>
	<path id="XMLID_16_" class="st2" d="M440.73,289.31c-0.14-4.55-3.56-8.11-8.39-8.68c-0.57-0.14-1-0.14-1.85-0.14
		c-0.85,0-2.28,0-5.26,0h-20.91c-8.25,0-9.1,0.14-11.24,1.14c-2.7,1.14-4.98,4.55-5.26,7.82l0,0v0.57c0,2.42,1.14,4.84,2.85,6.69
		c1.85,1.85,4.13,2.7,7.68,2.7h5.83v31.72c0,1,0,1.71,0.14,2.42c0.14,2.56,0.71,3.98,1.71,5.69c1.99,2.7,4.98,4.27,8.39,4.27
		c3.56,0,6.54-1.71,8.39-4.55c1-1.56,1.42-3.13,1.71-5.41c0.14-0.71,0.14-1.56,0.14-2.7v-31.58h4.84c3.7,0,6.26-0.71,7.82-2.28
		c1.99-1.85,3.27-4.55,3.27-7.4L440.73,289.31"/>
	<path id="XMLID_15_" class="st2" d="M480.43,308.66c-2.85-2.42-7.97-4.98-13.37-6.69c-2.13-0.57-3.56-1.28-4.55-1.85l0,0
		c-1.28-0.71-1.85-1.42-1.85-2.7c0-1.42,1.14-2.7,2.7-2.7c1.14,0,2.28,0.57,4.55,2.28c2.13,1.56,3.7,2.56,5.41,3.13l0,0
		c1.14,0.28,1.99,0.57,3.27,0.57c1.14,0,1.99-0.14,2.85-0.57l0,0c3.13-1.14,4.98-4.13,4.98-7.97c0-1.14-0.14-2.13-0.57-3.13
		c-1.99-6.12-9.82-10.53-19.49-10.53c-9.39,0-16.79,3.98-20.34,10.53l0,0c-1.56,2.85-2.56,6.26-2.56,9.96v1.14l0,0
		c0.28,8.11,4.84,13.66,13.51,16.79c1.71,0.57,3.41,1.14,5.12,1.85c3.27,1.14,3.7,1.42,4.13,1.85c1.14,0.71,1.71,1.56,1.71,2.85
		c0,1.71-1.14,2.85-2.7,2.85c-1.56,0-2.28-0.43-6.69-3.98c-2.7-2.13-4.84-2.99-7.26-2.99c-5.26,0-9.25,4.13-9.25,9.25
		c0,1.71,0.28,3.27,1.14,4.69l0,0c2.85,6.4,11.67,11.1,22.48,11.1c7.68,0,13.37-2.13,17.5-6.26c1.42-1.42,2.56-2.99,3.41-4.84
		c1.56-3.13,2.42-6.54,2.42-10.1C486.69,317.62,484.27,311.93,480.43,308.66"/>
	<path id="XMLID_14_" class="st1" d="M18.08,223.87c-4.41-0.14-8.39-1.85-11.38-4.69c-0.28,1.14-0.57,2.56-0.57,3.84v12.38
		C7.83,231.84,11.67,228,18.08,223.87"/>
	<path id="XMLID_13_" class="st1" d="M29.17,283.05c-4.98-0.71-8.39-2.85-9.67-6.12l-12.8-32.29l-0.57-1.14v85.07
		c0,8.39,6.83,15.22,15.22,15.22h39.98c-1.42-1.42-2.56-2.99-3.56-4.98C57.91,338.96,33.44,291.45,29.17,283.05"/>
	<path id="XMLID_12_" class="st2" d="M112.39,207.8H89.77l0.14,0.14c0.43,0.57,0.71,1.14,1,1.85c0.28,0.43,0.28,1,0.43,1.56
		c10.95,27.74,12.52,31.72,12.66,32.15l0,0v0.14v-0.14c0.43,1,0.57,1.99,0.57,3.13c0,2.56-1.14,5.26-3.41,7.97
		c2.7,8.54,7.82,25.46,16.79,58.75l0.57,1.85v-0.14c3.56,11.38-1.71,22.05-13.8,29.16h7.82c8.39,0,15.22-6.83,15.22-15.22V223.3
		C127.62,214.63,120.79,207.8,112.39,207.8"/>
	<path id="XMLID_11_" class="st3" d="M65.31,209.22L65.31,209.22c-6.54,1.42-14.23,3.7-21.2,6.54c-7.11,2.7-14.37,6.26-19.92,9.82
		c-9.96,5.83-15.08,11.24-14.08,14.8v0.28c0,0.43,0.14,0.71,0.28,1.14l0.43,0.71l0.28,0.43l12.8,32.44
		c0.71,1.99,3.27,3.13,7.26,3.41c0.71,0.14,1.28,0.43,1.56,1.14l29.59,57.19c5.69,11.24,21.91,10.81,34.43,5.69
		c14.23-5.69,20.77-15.51,17.36-26.46l-0.57-1.85c-9.53-35.14-14.65-51.93-17.21-59.89c-0.28-0.71-0.14-1.42,0.43-1.99
		c2.85-2.99,3.7-5.41,2.99-7.54l-12.8-32.44l-0.14-0.43l-0.28-0.85l-0.57-1l-0.14-0.14C83.94,206.94,76.54,206.66,65.31,209.22"/>
	<path id="XMLID_10_" class="st3" d="M40.13,168.96c-3.7,2.7-5.83,6.69-6.69,11.38c-1,6.54,2.7,10.81,6.12,14.65
		c3.56,4.13,6.69,7.82,4.69,14.08c-0.14,0.57-0.14,1.14,0.28,1.71c0.43,0.57,0.71,1,1.42,1.14c1.14,0.43,2.42-0.28,2.85-1.56
		c2.7-8.68-1.85-14.08-5.69-18.35c-3.56-4.13-5.69-6.83-4.98-11.1c0.57-3.56,2.13-6.26,4.84-8.25c3.84-2.85,8.82-3.27,10.1-2.99
		c5.41,0.85,7.11,4.98,7.54,6.69c0.28,1.14,0.28,2.42,0.28,3.56c-0.28,2.42-1.56,4.55-3.41,6.12h-0.14c-2.28,1.14-4.13,1.14-5.41,0
		c-1.14-1.14-1.28-2.7-0.85-3.7c0.43-0.85,1.56-1.14,3.27-1c0.57,0.14,1.14,0,1.71-0.43c0.57-0.28,0.85-0.85,1-1.56
		c0.28-1.28-0.57-2.42-1.85-2.7c-3.7-0.57-6.69,0.57-8.11,3.27c-1.42,2.85-0.71,6.69,1.71,9.1c2.7,2.7,6.83,2.85,10.95,0.57
		l0.28-0.14c4.55-3.27,6.4-9.1,5.12-14.51c-1.28-5.41-5.55-9.1-11.24-10.1C51.36,164.84,45.1,165.26,40.13,168.96"/>
	<path id="XMLID_9_" class="st3" d="M13.1,193.86c-4.69,3.27-6.83,7.26-7.26,11.1c-0.43,3.27,0.43,6.4,2.13,8.82
		c3.56,5.12,10.81,7.68,18.21,2.85l0.14-0.14c3.84-2.85,3.7-8.68,1.14-12.23c-2.42-3.41-6.4-3.98-10.1-1.56
		c-1.14,0.71-1.28,2.13-0.57,3.27c0.28,0.57,0.85,0.85,1.42,1c0.71,0.14,1.14,0,1.71-0.28c2.13-1.42,3.27-0.57,3.84,0.28
		c0.71,1,1.14,2.42,0.85,3.7c-0.14,1-0.43,1.56-1.14,1.99c-4.98,3.27-9.53,1.56-11.81-1.71c-2.42-3.7-2.28-9.25,3.98-13.51
		c6.12-4.13,10.53-1.56,12.52,0.28c3.98,3.7,5.55,9.96,3.27,13.8c-0.71,1.14-0.28,2.56,0.85,3.13c0.57,0.28,1.14,0.43,1.71,0.28
		c0.71-0.28,1.14-0.57,1.42-1.14c3.27-5.83,1.42-14.37-4.27-19.49C26.33,189.87,19.36,189.59,13.1,193.86"/>
	<path id="XMLID_8_" class="st0" d="M77.68,218.18c-7.54,0.85-18.64,3.84-29.31,7.97c-10.67,4.27-20.91,9.96-26.89,14.65
		c-4.13,0.28-6.69,0-7.68-0.57c0.71-2.56,10.95-11.95,32.01-20.34c21.05-8.39,34.71-8.82,36.85-7.4
		C82.52,213.49,80.95,215.62,77.68,218.18"/>
	<path id="XMLID_7_" class="st0" d="M109.69,317.2c2.7,9.25-4.13,16.79-14.8,21.05c-11.1,4.41-24.61,4.69-28.88-3.56
		c-1.42-2.85-19.92-36.99-29.02-56.05c9.25-1,20.63-4.27,28.88-7.54s18.78-8.68,26.18-14.23C98.6,276.8,108.7,314.07,109.69,317.2"
		/>
	<path id="XMLID_6_" class="st0" d="M64.31,266.55c-19.49,7.68-34.29,8.25-36.56,6.4l-10.81-26.75c10.1,0.71,25.61-3.98,35.85-8.11
		s24.9-11.24,31.72-18.64l10.81,26.75C94.9,249.05,83.8,258.73,64.31,266.55"/>
	<path class="st1" d="M72.13,287.61c-1.14-1.14-2.42-1.99-3.84-2.56c-2.42-1-4.98-0.85-7.82-0.14c-1.28,0.28-2.7,0.71-3.98,1
		c-1.85,0.43-2.7,1.42-2.7,2.7c0,0.43,0.14,0.71,0.71,1.99c1.42,3.27,2.85,6.54,4.41,9.67c0.57,1.14,0.71,1.56,1,1.99
		c0.57,0.71,1.14,1.14,1.99,1.28c0.71,0.14,1.42,0.14,2.85-0.14c0.85-0.28,1.71-0.43,2.56-0.71c1.28-0.28,2.42-0.71,2.99-1.14
		c1.42-0.71,2.7-1.99,3.41-3.56c1.14-2.28,1.28-5.26,0.28-7.68C73.56,289.46,72.85,288.46,72.13,287.61 M67.58,296
		c-0.57,0.71-1,1-3.13,1.56c-1-2.28-1.85-4.55-2.85-6.83l0.57-0.14c1-0.28,1.56-0.28,2.28-0.28h0.28c1.42,0.14,2.7,1.14,3.27,2.42
		C68.44,293.87,68.15,295.15,67.58,296z"/>
	<path class="st2" d="M89.49,278.93c-1-1.14-2.13-1.85-3.41-2.28c-2.28-0.71-4.55-0.28-7.26,1.14c-1.28,0.71-2.42,1.14-3.7,1.71
		c-1.71,0.71-2.7,1.99-2.56,3.41c0,0.43,0.14,0.71,0.71,2.13c1.28,3.27,2.56,6.54,3.84,9.96c0.43,1.28,0.57,1.42,0.85,1.99
		c0.43,0.57,1.14,1,1.85,1.14c0.71,0.14,1.28,0,2.7-0.57c0.85-0.28,1.56-0.71,2.42-1.14c1.14-0.57,2.13-1.14,2.7-1.71
		c1.42-1.14,2.42-2.7,3.27-4.41c1.14-2.7,1.28-5.83,0.43-8.39C90.63,280.78,90.06,279.78,89.49,278.93 M85.08,288.89
		c-0.57,0.85-1,1.14-2.85,2.13c-0.85-2.28-1.71-4.69-2.56-7.11l0.57-0.14c1-0.43,1.56-0.57,1.99-0.71h0.28
		c1.42,0,2.42,0.85,2.99,2.13C85.79,286.33,85.79,287.75,85.08,288.89z"/>
</g>
</svg>
