<svg height="211.55777mm" viewBox="0 0 211.56235 211.55777" width="211.56235mm" xmlns="http://www.w3.org/2000/svg"><g stroke-linecap="square" transform="matrix(2.3339276 0 0 2.3339276 -78.569483 -279.351085)"><path d="m123.45979 165.01389a44.472504 44.472504 0 0 1 -44.472508 44.4725 44.472504 44.472504 0 0 1 -44.472504-44.4725 44.472504 44.472504 0 0 1 44.472504-44.47251 44.472504 44.472504 0 0 1 44.472508 44.47251z" fill="#fff" stroke-width="1.7"/><path d="m78.986328 119.69141c-25.020835 0-45.322265 20.30143-45.322266 45.32226 0 25.02084 20.301431 45.32227 45.322266 45.32227 25.020832 0 45.324222-20.30143 45.324222-45.32227 0-25.02083-20.30339-45.32226-45.324222-45.32226zm0 1.69922c24.102092 0 43.623052 19.52095 43.623052 43.62304s-19.52096 43.62305-43.623052 43.62305c-24.102087 0-43.621094-19.52096-43.621094-43.62305s19.519007-43.62305 43.621094-43.62304z"/><path d="m100.93337 156.16773c-5.170483 0-7.877551 2.18951-7.877551 5.54591 0 1.07539.667102 2.60841 1.78542 3.33262 1.958332 1.26819 3.59652 1.45766 5.845641 2.00504 1.29221.31449 2.69441.6784 2.69441 1.50275 0 .68764-.69823 1.19269-2.53215 1.19269-3.631017 0-4.34702-1.91357-4.34702-1.91357l-4.650879 1.70945c.985944 3.13298 5.803906 4.20646 8.997899 4.20646 3.41327 0 5.38553-.72895 6.63939-1.92443 1.3855-1.32099 1.5198-2.60013 1.5198-3.81062 0-1.07537-.41732-2.49451-2.47581-3.68298-1.49757-.86461-4.52502-1.39371-5.84564-1.67741-.49472-.10628-2.092381-.33874-2.092381-1.28003 0-.70262.998639-1.08572 2.338871-1.08572 2.64831 0 3.07113 1.78956 3.07113 1.78956l4.67052-1.7167c-.73116-3.27695-4.56633-4.19302-7.74165-4.19302zm15.4342.0796-5.60327 2.05982h-.002v.00052 14.77533h5.60577zm-74.952527.31109v16.52406h5.604826v-3.07992c1.964535-.66996 4.310914-1.48128 6.318477-2.3952 3.91749-1.78339 4.082439-4.01486 4.082439-5.87199 0-2.30126-1.714887-5.17695-6.49056-5.17695h-3.910356zm17.610295 0v16.52458h14.56862v-4.07211h-8.963794v-2.18746h7.032128v-4.06125h-7.032128v-2.14234l8.805147-.00017v-4.06125zm16.997412 0v16.52406h5.604826v-3.07992c1.964535-.66996 4.310914-1.48128 6.318477-2.3952 3.91749-1.78339 4.082438-4.01486 4.082438-5.87199 0-2.30126-1.714886-5.17695-6.49056-5.17695h-3.910355zm-29.002881 4.06142h2.801379c.938972 0 1.72806.76409 1.72806 1.73616 0 1.15907-.444717 1.77423-2.132169 2.4784l-2.39727.95188zm34.607707 0h2.801379c.938972 0 1.72806.76409 1.72806 1.73616 0 1.15907-.444717 1.77423-2.13217 2.4784l-2.397269.95188z" stroke-width="2.97371"/><g stroke-width="3"><path d="m78.987427 124.42238a40.597126 40.597126 0 0 0 -37.236487 24.49463c.147456.0524 8.068246 2.8546 16.060518 2.8546 12.488986 0 27.464489-5.10563 43.602502-5.10563 8.16863 0 14.21468 2.02281 14.83269 2.23708a40.597126 40.597126 0 0 0 -37.259223-24.48068z" fill="#fe0a00"/><path d="m79.010163 205.61685a40.597126 40.597126 0 0 0 37.236487-24.49463c-.14746-.0524-8.06825-2.8546-16.06052-2.8546-12.488984 0-27.464487 5.10563-43.6025 5.10563-8.16863 0-14.21468-2.02281-14.83269-2.23708a40.597126 40.597126 0 0 0 37.259223 24.48068z" fill="#0a0198"/></g></g></svg>