<svg class="app-icon-fill" style="fill:#FFF" xmlns="http://www.w3.org/2000/svg" viewBox="0 0 800 800"><defs><style>.cls-1{fill-rule:evenodd;}</style></defs><path class="cls-1" d="M149.6,194.7l75.2,130.4A190.5,190.5,0,0,1,400,209.5H661.9C603,128.7,507.6,76.2,400,76.2A323,323,0,0,0,149.6,194.7Zm553.5,91.1H552.4a190.2,190.2,0,0,1,12.5,209.5h0L434.2,722c162.7-17,289.6-154.7,289.6-322A322.3,322.3,0,0,0,703.1,285.8ZM347.6,719.6l75.3-130.5a192.9,192.9,0,0,1-22.9,1.4,190.5,190.5,0,0,1-164.9-95.2l-.3-.5L104.1,268.3A323.1,323.1,0,0,0,76.2,400C76.2,561,193.7,694.6,347.6,719.6ZM301,457.2a114.3,114.3,0,1,0,99.1-171.5H400a114.3,114.3,0,0,0-99.2,171.1l.2.4ZM72.8,169.9C145.1,67.2,264.7,0,400,0,560.8,0,699.4,94.9,762.9,231.6A398.9,398.9,0,0,1,800,400c0,220.9-179.1,400-400,400-11.9,0-23.7-.5-35.3-1.5C160.3,780.5,0,609,0,400A397.7,397.7,0,0,1,72.8,169.9Z"/></svg>