<svg style="fill:#FFF" xmlns="http://www.w3.org/2000/svg" viewBox="0 0 200 195.5"><path d="M83.3,156.4a8,8,0,0,1-5.7-13.6l36.2-36.2c-1.6-12.4-12.7-16.5-18.5-17.9l-30,30A8,8,0,1,1,54,107.4L86.8,74.6l.3-.3.3-.3L163.7,9.1a33.8,33.8,0,0,1,8.7-5.3h.4a19.7,19.7,0,0,1,25.7,25.7v.4a32.2,32.2,0,0,1-5.3,8.7l-64.9,76.3-.3.3-.3.3L89,154.1A8,8,0,0,1,83.3,156.4ZM109,76.7a37.3,37.3,0,0,1,17.1,15.9l54.8-64.4a15,15,0,0,0,2.6-4.4l.2-.3a3.6,3.6,0,0,0-.9-4.1,3.8,3.8,0,0,0-4.1-.9l-.3.2a14.5,14.5,0,0,0-4.3,2.6Z" transform="translate(0 -2.2)"/><path d="M47.9,197.8H11.6a11.7,11.7,0,0,1-6.9-21l7.8-5.7-2.2-11.9h0a40.8,40.8,0,1,1,81-7.4v2.5A43.5,43.5,0,0,1,47.9,197.8Zm-23-16h23a27.5,27.5,0,0,0,27.4-27.5v-2.5a24.8,24.8,0,1,0-49.2,4.5l2.6,14.1A12.5,12.5,0,0,1,24.9,181.8ZM13,173.3Z" transform="translate(0 -2.2)"/></svg>