<svg class="app-icon-fill" style="fill:#FFF" data-name="Layer 1" xmlns="http://www.w3.org/2000/svg" viewBox="0 0 800 680"><defs><style>.cls-1{fill-rule:evenodd;}</style></defs><path class="cls-1" d="M491.2,43.3A80.1,80.1,0,0,1,567.1,98l21.7,65.3H680a120,120,0,0,1,120,120v320a120,120,0,0,1-120,120H120A120,120,0,0,1,0,603.3v-320a120,120,0,0,1,120-120h91.2L232.9,98a80.1,80.1,0,0,1,75.9-54.7Zm0,80H308.8l-21.7,65.3a80,80,0,0,1-75.9,54.7H120a40,40,0,0,0-40,40v320a40,40,0,0,0,40,40H680a40,40,0,0,0,40-40v-320a40,40,0,0,0-40-40H588.8a80,80,0,0,1-75.9-54.7ZM300,423.3a100,100,0,1,1,100,100A100,100,0,0,1,300,423.3Zm100-180c-99.4,0-180,80.6-180,180s80.6,180,180,180,180-80.6,180-180S499.4,243.3,400,243.3Z" transform="translate(0 -43.3)"/></svg>