<svg class="app-icon-fill" style="fill:#FFF" data-name="Layer 1" xmlns="http://www.w3.org/2000/svg" viewBox="0 0 799.4 670.7"><path d="M786.3,111.7C775,92.2,757.4,76.6,735.5,66.9c-23.9-10.7-49.1-10.7-99.4-10.7H163.9c-50.3,0-75.5,0-99.4,10.7-21.9,9.7-39.4,25.2-50.8,44.8C.3,134.8.3,159.3.3,203.8V613.3c0,45.1,0,70,17.6,89.3,14,15.5,34.6,24.3,56.4,24.3h.1c24.8,0,44.6-13.9,84.2-41.7l61.7-43.3.3-.2c.1-.1.4-.2.5-.4,12-8.4,17-11.8,21.2-13.7a56.1,56.1,0,0,1,13-4c5.1-.9,12.6-.9,27.5-.9H636.2c50.2,0,75.4,0,99.3-10.7,21.9-9.8,39.4-25.3,50.8-44.9,13.4-23,13.4-47.5,13.4-91.9V203.6C799.7,159.2,799.7,134.8,786.3,111.7ZM733,475.2c0,30.7,0,50.9-4.3,58.4s-11.5,13.6-20.4,17.5c-10.9,4.9-33.9,4.9-72.1,4.9H282.8c-18.2,0-28.3,0-39.3,2a123.2,123.2,0,0,0-28.4,8.7c-10.2,4.6-18,10-32,19.9h-.2l-.6.4-62,43.5c-19.6,13.8-39.8,27.9-46.5,29.6a11.5,11.5,0,0,1-5.2-1.4C67,651.5,67,632.1,67,613.3V203.8c0-30.8,0-51.1,4.3-58.6s11.5-13.5,20.4-17.5c10.9-4.9,34-4.9,72.2-4.9H636.1c38.2,0,61.3,0,72.2,4.9,8.9,4,16.1,10.2,20.4,17.5S733,173,733,203.6Z" transform="translate(-0.3 -56.2)"/><line x1="231.1" y1="232.8" x2="484.9" y2="232.8"/><rect x="231.1" y="229.8" width="253.8" height="6"/><path d="M485.1,322.5H231.4a33.5,33.5,0,1,1,0-67H485.1a33.5,33.5,0,0,1,0,67Z" transform="translate(-0.3 -56.2)"/><path d="M485.1,325.5H231.4a36.5,36.5,0,1,1,0-73H485.1a36.5,36.5,0,0,1,0,73Zm-253.7-67a30.5,30.5,0,1,0,0,61H485.1a30.5,30.5,0,0,0,0-61Z" transform="translate(-0.3 -56.2)"/><line x1="231.1" y1="338.7" x2="613.2" y2="338.7"/><rect x="231.1" y="335.7" width="382.1" height="6"/><path d="M613.5,428.3H231.4a33.5,33.5,0,0,1,0-67H613.5a33.5,33.5,0,0,1,0,67Z" transform="translate(-0.3 -56.2)"/><path d="M613.5,431.3H231.4a36.5,36.5,0,0,1,0-73H613.5a36.5,36.5,0,0,1,0,73Zm-382.1-67a30.5,30.5,0,0,0,0,61H613.5a30.5,30.5,0,0,0,0-61Z" transform="translate(-0.3 -56.2)"/></svg>