<svg style="fill:#FFF" xmlns="http://www.w3.org/2000/svg" viewBox="0 0 200 200"><defs><style>.cls-1{fill-rule:evenodd;}</style></defs><g id="Page-1"><g id="Dribbble-Light-Preview"><g id="icons"><path id="clock-_1315_" data-name="clock-[#1315]" class="cls-1" d="M180,100a80,80,0,1,0-80,80,80.1,80.1,0,0,0,80-80m20,0A100,100,0,1,1,100,0,100,100,0,0,1,200,100m-40,10a10,10,0,0,1-10,10H110a20,20,0,0,1-20-20V50a10,10,0,0,1,20,0V90a10,10,0,0,0,10,10h30a10,10,0,0,1,10,10" transform="translate(0 0)"/></g></g></g></svg>