<svg id="Layer_1" data-name="Layer 1" xmlns="http://www.w3.org/2000/svg" viewBox="0 0 200 178.7"><defs><style>.cls-1{fill:#0066da;}.cls-2{fill:#ea4335;}.cls-3{fill:#00832d;}.cls-4{fill:#2684fc;}.cls-5{fill:#00ac47;}.cls-6{fill:#ffba00;}</style></defs><path class="cls-1" d="M15.1,163.8,23.9,179a21.3,21.3,0,0,0,7.6,7.6c8.9-11.2,15-19.9,18.5-25.9s7.9-15.6,13-28.6c-13.9-1.9-24.4-2.8-31.5-2.8s-17.4.9-31.5,2.8a21.1,21.1,0,0,0,2.7,10.3Z" transform="translate(0 -10.7)"/><path class="cls-2" d="M168.5,186.6a21.3,21.3,0,0,0,7.6-7.6l3.6-6.3,17.6-30.3a21.1,21.1,0,0,0,2.7-10.3c-14.2-1.9-24.7-2.8-31.4-2.8s-17.8.9-31.5,2.8c5.1,13,9.4,22.6,12.8,28.6S159.6,175.4,168.5,186.6Z" transform="translate(0 -10.7)"/><path class="cls-3" d="M100,67.9c10.2-12.4,17.3-21.9,21.2-28.6s6.6-14,10.3-25.9a20.3,20.3,0,0,0-10.3-2.7H78.8a21.4,21.4,0,0,0-10.3,2.7c4.8,13.6,8.8,23.3,12.1,29S90.8,57.3,100,67.9Z" transform="translate(0 -10.7)"/><path class="cls-4" d="M137,132.1H63L31.5,186.6a20.3,20.3,0,0,0,10.3,2.7H158.2a21.4,21.4,0,0,0,10.3-2.7Z" transform="translate(0 -10.7)"/><path class="cls-5" d="M100,67.9,68.5,13.4A21.3,21.3,0,0,0,60.9,21L2.7,121.8A20.9,20.9,0,0,0,0,132.1H63Z" transform="translate(0 -10.7)"/><path class="cls-6" d="M168.2,71.4,139.1,21a21.3,21.3,0,0,0-7.6-7.6L100,67.9l37,64.2h62.9a20,20,0,0,0-2.8-10.3Z" transform="translate(0 -10.7)"/></svg>