<svg id="Layer_1" data-name="Layer 1" xmlns="http://www.w3.org/2000/svg" viewBox="0 0 186.7 200"><defs><style>.cls-1{fill:#00f076;}.cls-2{fill:#ffc900;}.cls-3{fill:#00d6ff;}.cls-4{fill:#ff3a44;}</style></defs><path class="cls-1" d="M106.7,90l28-30L26,1.3C25.3.7,24,.7,22,0Z" transform="translate(-6.7)"/><path class="cls-2" d="M146.7,133.3,186,112c4.7-2.7,7.3-6.7,7.3-12s-2.6-10-7.3-12L146.7,66.7,115.3,100Z" transform="translate(-6.7)"/><path class="cls-3" d="M9.3,6a10,10,0,0,0-2.6,7.3V186.7a12.9,12.9,0,0,0,2.6,8l88-94.7Z" transform="translate(-6.7)"/><path class="cls-4" d="M106.7,110,22,200a10.4,10.4,0,0,0,4-1.3L134.7,140Z" transform="translate(-6.7)"/></svg>