<svg class="app-icon-fill" style="fill:#FFF" data-name="Layer 1" xmlns="http://www.w3.org/2000/svg" viewBox="0 0 800 800"><path d="M610.6,799.9c-20,0-43.1-3-69.4-10.8C452.8,763,347.7,689.5,229.1,570.9h0C110.5,452.3,37,347.2,10.9,258.8.4,223.4-2.5,190.5,2.1,161c3.6-22.4,11.6-43,23.4-59.9a289.3,289.3,0,0,1,37-44.9C92.7,26.3,124.3,8.1,156.6,2.1c37.7-7,75,3.5,107.7,30.3,62.1,51.1,96.1,94.4,106.9,136.3s-3.1,74-14.3,99.7c-8.9,20.4-14.3,33.7-11.8,49.1,3.4,21.4,22.2,48.3,55.9,80.1s62.3,49.5,84.8,52.7c17.2,2.5,31.5-3.5,49.6-11.2,25.3-10.6,56.7-23.8,98.1-11.8s82.9,46.1,134.1,108.3c26.9,32.9,37.3,70.2,30.2,108-6,32.2-24.2,63.8-54,93.9-19.3,19.5-37.8,32.5-44.9,37C682.8,785.7,653.9,799.9,610.6,799.9ZM279.4,520.6c137.2,137.2,229.1,184.6,282,200.3,55.5,16.4,84.6,3.9,97.1-5a24,24,0,0,1,2.6-1.8c12.8-7.9,60.4-44.9,67-84.8,2.8-16.8-2.2-32.2-15.5-48.5-40.5-49.1-73.8-77.8-99-85.1-16.4-4.8-28.6-.2-50.6,9.1s-50.5,21.2-87.2,16c-38.4-5.4-77.7-28.1-123.6-71.5S280.9,367,274.8,328.7c-5.9-36.7,6.7-65.6,16.8-88.7s15.2-36.2,10.7-53.5c-6.7-25.8-34.7-59.2-83.2-99.1-16.2-13.3-31.6-18.3-48.4-15.5-39.8,6.6-76.9,54.3-84.9,67a23.3,23.3,0,0,1-1.7,2.6c-8.9,12.5-21.3,41.7-5,97.1,15.7,52.9,63.1,144.8,200.3,282ZM661.7,713.8l-.4.2ZM86,138.5c0,.1-.1.2-.1.3S86,138.6,86,138.5Z"/></svg>