<svg style="fill:#FFF" xmlns="http://www.w3.org/2000/svg" viewBox="0 0 200 189.5"><g id="Interface_Settings" data-name="Interface / Settings"><g id="Vector"><path d="M128.9,194.8a27.8,27.8,0,0,1-5.7-.7c-4.2-.9-7.5-2.9-13.4-6.5l-3.5-2-.7-.4a9.5,9.5,0,0,0-4.7-1.3H99.1a10.2,10.2,0,0,0-4.8,1.3l-.8.5-3.2,1.9c-6,3.6-9.2,5.5-13.4,6.4a24.5,24.5,0,0,1-11.1.1c-4.2-.8-7.5-2.7-13.5-6.2l-4.5-2.6c-6-3.5-9.3-5.4-12.2-8.5a28.4,28.4,0,0,1-5.5-9.7c-1.2-4.1-1.2-7.9-1.1-14.9v-4.7a9.7,9.7,0,0,0-1.2-4.7l-.3-.6-.2-.3a2.8,2.8,0,0,0-.5-.8,9.8,9.8,0,0,0-3.5-3.5l-.5-.3-3.6-2c-6.1-3.4-9.4-5.2-12.3-8.3a27.3,27.3,0,0,1-5.6-9.6C.1,113.3,0,109.3,0,102.7V97.5c0-6.9,0-10.8,1.3-14.8A26.5,26.5,0,0,1,7,73c2.9-3.1,6.2-5,12.3-8.3l3.6-2c.3-.2.4-.3.6-.3A11.7,11.7,0,0,0,27,58.9a1.7,1.7,0,0,1,.2-.5l.2-.3.5-.8a10.1,10.1,0,0,0,1.2-4.8V47.7c-.1-6.9-.1-10.7,1.1-14.8a28.4,28.4,0,0,1,5.5-9.7c2.8-3.1,6.1-5,12-8.4a.1.1,0,0,1,.1-.1l4.5-2.6h.2c5.9-3.4,9.1-5.3,13.3-6.2a26.4,26.4,0,0,1,11.2.1c4.1.9,7.4,2.9,13.4,6.5l3.5,2.1.5.3a10.2,10.2,0,0,0,4.8,1.3h1.8a10.2,10.2,0,0,0,4.8-1.3l.8-.5,3.2-1.9h.2c5.8-3.5,9.1-5.4,13.2-6.3a24.5,24.5,0,0,1,11.1-.1c4.2.8,7.5,2.7,13.5,6.2l4.5,2.6c6,3.5,9.3,5.4,12.2,8.5a27.9,27.9,0,0,1,5.5,9.8c1.2,4,1.2,7.8,1.1,14.7v4.9a10,10,0,0,0,1.2,4.7l.5.8.2.4.3.4a10.3,10.3,0,0,0,3.4,3.5l.9.4,3.2,1.8h.1c6.1,3.4,9.4,5.2,12.3,8.3a27.3,27.3,0,0,1,5.6,9.6c1.3,4,1.4,7.8,1.4,14.7v5.3c0,6.9,0,10.7-1.3,14.7A26.5,26.5,0,0,1,193,127c-2.9,3.1-6.2,5-12.3,8.3l-3.3,1.9h-.2l-.6.3a11,11,0,0,0-3.6,3.5l-.4.8-.5.8a10.1,10.1,0,0,0-1.2,4.8v4.9c.1,6.9.1,10.6-1.1,14.7a26.8,26.8,0,0,1-5.5,9.7c-2.8,3.1-6.1,5-12,8.5l-4.6,2.6c-6,3.5-9.3,5.4-13.5,6.3A24.8,24.8,0,0,1,128.9,194.8ZM100,167.9h1.5a27,27,0,0,1,12,3.3l1,.6,3.5,2.1c4.5,2.7,7,4.2,8.7,4.6a10.9,10.9,0,0,0,4.4,0c1.6-.3,4.1-1.8,8.7-4.4l4.5-2.7c4.6-2.6,7-4,8.1-5.3a9.7,9.7,0,0,0,2.2-3.8c.5-1.6.4-4.4.4-9.6v-5.5a25.6,25.6,0,0,1,3.1-12.1,9,9,0,0,1,.7-1.1h0l.8-1.2a25.8,25.8,0,0,1,8.9-8.8l1.1-.7h.2l3.2-1.8c4.7-2.6,7.2-4,8.4-5.3a10.3,10.3,0,0,0,2.2-3.8c.5-1.5.5-4.4.5-9.6V97.4c0-5.3,0-8.2-.6-9.8a8.7,8.7,0,0,0-2.2-3.7c-1.1-1.3-3.6-2.6-8.1-5.2h-.2l-3.3-1.9-1.3-.7a27.1,27.1,0,0,1-8.8-8.7l-.6-.9-.2-.4-.7-1.2a25.6,25.6,0,0,1-3.1-12.1V47.4c0-5.2.1-8.1-.4-9.7a9.7,9.7,0,0,0-2.2-3.8c-1.1-1.3-3.6-2.7-8.2-5.3l-4.5-2.7c-4.6-2.6-7.1-4-8.7-4.4a9.3,9.3,0,0,0-4.4.1c-1.6.3-4.1,1.8-8.6,4.5h-.2l-3.1,1.9-1.3.7a26.2,26.2,0,0,1-11.9,3.3h-3a27,27,0,0,1-12-3.3l-.9-.6L82,26.1c-4.5-2.7-7-4.2-8.7-4.6a10.9,10.9,0,0,0-4.4,0c-1.6.3-4.1,1.8-8.7,4.4h-.1l-4.3,2.5a.1.1,0,0,0-.1.1c-4.5,2.6-7,4-8.1,5.3a11.1,11.1,0,0,0-2.2,3.8c-.5,1.5-.4,4.2-.4,9.7v5.4A25.9,25.9,0,0,1,42,64.9l-.7,1.2-.2.3-.5.9a27.7,27.7,0,0,1-8.9,8.8l-1,.6-3.6,1.9c-4.6,2.6-7.2,4-8.3,5.3a9.3,9.3,0,0,0-2.3,3.8c-.5,1.5-.5,4.2-.5,9.8v5.1c0,5.5.1,8.2.6,9.8a10.7,10.7,0,0,0,2.2,3.7c1.1,1.3,3.7,2.7,8.2,5.2l3.6,2,1.1.6a27.1,27.1,0,0,1,8.8,8.7l.8,1.4.2.3c.3.4.4.7.6,1a27.6,27.6,0,0,1,3,11.9v5.3c0,5.5-.1,8.2.4,9.8a11.1,11.1,0,0,0,2.2,3.8c1.1,1.3,3.6,2.7,8.2,5.3l4.5,2.7c4.6,2.6,7.1,4,8.7,4.4a9.3,9.3,0,0,0,4.4-.1c1.7-.3,4.1-1.8,8.7-4.5l3.2-2,1.3-.7a26.2,26.2,0,0,1,11.9-3.3Z" transform="translate(0 -5.2)"/><path d="M100,144.8A44.8,44.8,0,1,1,144.8,100,44.9,44.9,0,0,1,100,144.8Zm0-73.6A28.8,28.8,0,1,0,128.8,100,28.8,28.8,0,0,0,100,71.2Z" transform="translate(0 -5.2)"/></g></g></svg>