<svg style="fill:#FFF" xmlns="http://www.w3.org/2000/svg" viewBox="0 0 200 200"><defs><style>.cls-1{fill-rule:evenodd;}</style></defs><g id="Page-1"><g id="Dribbble-Light-Preview"><g id="icons"><path id="spotify-_162_" data-name="spotify-[#162]" class="cls-1" d="M159.2,88.7C126.9,69.5,73.8,67.7,43,77.1a9.4,9.4,0,0,1-5.5-17.9c35.4-10.7,94.1-8.7,131.2,13.4a9.3,9.3,0,1,1-9.5,16.1ZM158.1,117a7.8,7.8,0,0,1-10.7,2.6c-26.9-16.5-67.9-21.3-99.7-11.7A7.8,7.8,0,0,1,43.2,93c36.3-11,81.5-5.7,112.3,13.3a7.7,7.7,0,0,1,2.6,10.7Zm-12.2,27.2a6.2,6.2,0,0,1-8.6,2.1c-23.5-14.4-53-17.6-87.9-9.6a6.2,6.2,0,0,1-2.7-12.2c38.1-8.7,70.7-4.9,97.1,11.2a6.2,6.2,0,0,1,2.1,8.5ZM100,0A100,100,0,1,0,200,100,100,100,0,0,0,100,0Z"/></g></g></g></svg>