<svg id="Layer_1" data-name="Layer 1" xmlns="http://www.w3.org/2000/svg" viewBox="0 0 800 800"><defs><style>.cls-1{fill:#fff;}</style></defs><path class="cls-1" d="M400,630a230.5,230.5,0,1,1,162.5-67.5A229.8,229.8,0,0,1,400,630Zm0-400a170.4,170.4,0,1,0,120.1,49.9A169.7,169.7,0,0,0,400,230Z"/><path class="cls-1" d="M400,120a30.4,30.4,0,0,1-30-30V30a30,30,0,0,1,60,0V90a30.4,30.4,0,0,1-30,30Z"/><path class="cls-1" d="M400,800a30.4,30.4,0,0,1-30-30V710a30,30,0,0,1,60,0v60a30.4,30.4,0,0,1-30,30Z"/><path class="cls-1" d="M770,430H710a30,30,0,0,1,0-60h60a30,30,0,0,1,0,60Z"/><path class="cls-1" d="M90,430H30a30,30,0,0,1,0-60H90a30,30,0,0,1,0,60Z"/><path class="cls-1" d="M180,210a29.8,29.8,0,0,1-20-10l-43.6-40a30.4,30.4,0,0,1-9-21.8,31.4,31.4,0,0,1,2.3-11.8A31,31,0,0,1,150,109.7a31.9,31.9,0,0,1,10,6.7L200,160a30.1,30.1,0,0,1-20,50Z"/><path class="cls-1" d="M662.4,692.4a30.6,30.6,0,0,1-11.5-2.3,30.1,30.1,0,0,1-9.7-6.5L600,640a30,30,0,0,1,40-40l43.6,40a29.9,29.9,0,0,1,0,42.4,29.6,29.6,0,0,1-9.6,7.2A29.1,29.1,0,0,1,662.4,692.4Z"/><path class="cls-1" d="M620,210a30.1,30.1,0,0,1-20-50l40-43.6A30.8,30.8,0,0,1,683.6,160L640,200A29.8,29.8,0,0,1,620,210Z"/><path class="cls-1" d="M137.6,692.4a30.6,30.6,0,0,1-11.5-2.3,30,30,0,0,1-9.7-48.9L160,600a30,30,0,0,1,40,40l-40,43.6a28.5,28.5,0,0,1-10.3,6.8A29.4,29.4,0,0,1,137.6,692.4Z"/></svg>