<?xml version="1.0" encoding="utf-8"?>
<!-- Generator: Adobe Illustrator 26.0.0, SVG Export Plug-In . SVG Version: 6.00 Build 0)  -->
<svg version="1.1" id="Layer_1" xmlns="http://www.w3.org/2000/svg" xmlns:xlink="http://www.w3.org/1999/xlink" x="0px" y="0px"
	 viewBox="0 0 266.4 256" style="enable-background:new 0 0 266.4 256;" xml:space="preserve">
<style type="text/css">
	.st0{fill:#FFFFFF;}
</style>
<path class="st0" d="M143.1,254c-10.9,0-21.8-1.4-32.8-4.5c-32.5-8.7-59.7-29.7-76.5-58.8C17.1,161.9,12.6,128,21.3,95.2
	C30,62.7,51,35.6,80.1,18.8c24.1-14,51.3-19.3,79-16c3.6,0.6,6.4,3.1,7,6.4c0.8,3.4-0.8,7-3.6,9C123.5,42.6,110.9,93,133.9,133
	s73.1,54.3,113.7,32.8c3.1-1.7,7-1.1,9.5,1.1c2.5,2.5,3.4,6.2,2,9.5c-10.6,25.8-28.8,46.8-52.9,60.8C186.5,248.4,165,254,143.1,254z
	 M135,19c-16.2,1.1-32.2,6.2-46.5,14.3c-25.2,14.6-43.4,38.1-51,66.4c-7.6,28.3-3.6,57.7,10.9,82.9s38.1,43.4,66.4,51
	c28.3,7.6,57.7,3.6,82.9-10.9c14.6-8.4,26.6-19.6,35.6-33c-43.7,11.2-90.5-7.3-114-47.9C95.8,100.8,103.1,51,135,19L135,19z"/>
</svg>
