<svg id="Layer_2" data-name="Layer 2" xmlns="http://www.w3.org/2000/svg" viewBox="0 0 200 200"><defs><style>.cls-1{fill:none;stroke:#000000;stroke-linecap:round;stroke-miterlimit:10;stroke-width:3px;}</style></defs><path class="cls-1" d="M189.8,2.9a23.4,23.4,0,0,1,6.4,16c0,2-.2,10.1-6.8,15.5A18.6,18.6,0,0,1,177,38.5c-1.2,0-11.2-.7-14.8-8.8-1.7-3.9-2.3-10.1,1.8-14.5a12.1,12.1,0,0,1,13.2-3.1c.7.2,5.7,2.3,6.4,7.2.1.2.7,5.1-3.1,7.8a7.9,7.9,0,0,1-8.5.4c-.5-.4-3.5-2.3-3.2-5.5a5.4,5.4,0,0,1,4.4-4.6,4.4,4.4,0,0,1,3.3,1.2l.4.7"/><path class="cls-1" d="M52.2,59.1a23.2,23.2,0,0,1,6.5,16c-.1,2-.2,10.2-6.8,15.6a19.3,19.3,0,0,1-12.4,4.1c-1.2-.1-11.2-.7-14.8-8.9-1.7-3.8-2.3-10.1,1.8-14.5a12.3,12.3,0,0,1,13.2-3.1c.7.3,5.7,2.3,6.4,7.2,0,.2.7,5.1-3.1,7.8a7.7,7.7,0,0,1-8.5.4c-.5-.3-3.5-2.3-3.2-5.4s2.3-4.5,4.4-4.6A3.8,3.8,0,0,1,39,74.8a5.9,5.9,0,0,1,.4.8"/><path class="cls-1" d="M18.6,47.8a23.7,23.7,0,0,1-6.4-16c0-2,.1-10.2,6.7-15.6a19.3,19.3,0,0,1,12.5-4.1c1.2.1,11.2.7,14.8,8.9,1.7,3.8,2.3,10.1-1.8,14.5a12.3,12.3,0,0,1-13.2,3.1c-.7-.3-5.7-2.3-6.5-7.2,0-.2-.6-5.1,3.2-7.8a7.6,7.6,0,0,1,8.4-.4c.6.3,3.6,2.3,3.2,5.4a5,5,0,0,1-4.3,4.6,3.7,3.7,0,0,1-3.3-1.1l-.4-.8"/><path class="cls-1" d="M159.3,95.8a23.2,23.2,0,0,1-6.5-16c.1-2,.2-10.1,6.8-15.5A18.1,18.1,0,0,1,172,60.2c1.2,0,11.2.6,14.8,8.8,1.7,3.8,2.3,10.1-1.8,14.5a12.3,12.3,0,0,1-13.2,3.1c-.7-.3-5.7-2.3-6.4-7.2,0-.2-.7-5.1,3.1-7.8a7.7,7.7,0,0,1,8.5-.4c.5.3,3.5,2.3,3.2,5.4a5.4,5.4,0,0,1-4.4,4.7,4.4,4.4,0,0,1-3.3-1.2l-.4-.8"/><path class="cls-1" d="M108.1,17.4a22.8,22.8,0,0,0-6.4,16c0,2,.1,10.2,6.7,15.6a19.3,19.3,0,0,0,12.4,4.1c1.2-.1,11.2-.7,14.8-8.9,1.8-3.8,2.4-10.1-1.8-14.5a12.3,12.3,0,0,0-13.2-3.1c-.7.3-5.7,2.3-6.4,7.2,0,.2-.7,5.1,3.2,7.8a7.6,7.6,0,0,0,8.4.4c.6-.3,3.5-2.3,3.2-5.4a5.1,5.1,0,0,0-4.4-4.6,3.6,3.6,0,0,0-3.2,1.1,1.2,1.2,0,0,0-.4.8"/><path class="cls-1" d="M21.7,157.3c-1.2,1.3-6.6,7.2-6.4,16,0,2,.1,10.1,6.7,15.6A19.3,19.3,0,0,0,34.5,193c1.1-.1,11.2-.7,14.8-8.9,1.7-3.8,2.3-10.1-1.8-14.5a12.5,12.5,0,0,0-13.3-3.1c-.6.3-5.7,2.3-6.4,7.2,0,.2-.6,5.1,3.2,7.8a7.6,7.6,0,0,0,8.4.4c.6-.3,3.5-2.3,3.2-5.4a5.1,5.1,0,0,0-4.4-4.6A3.6,3.6,0,0,0,35,173a2,2,0,0,0-.4.8"/><path class="cls-1" d="M115,184.9a22.6,22.6,0,0,0,6.5-15.9c-.1-2-.2-10.2-6.8-15.6a19.3,19.3,0,0,0-12.4-4.1c-1.2.1-11.2.7-14.8,8.8-1.8,3.9-2.3,10.2,1.8,14.6a12.3,12.3,0,0,0,13.2,3.1c.7-.3,5.7-2.3,6.4-7.2,0-.3.7-5.1-3.1-7.9a7.9,7.9,0,0,0-8.5-.4c-.6.4-3.5,2.4-3.2,5.5a5.2,5.2,0,0,0,4.4,4.6,4,4,0,0,0,3.3-1.2,2.5,2.5,0,0,0,.4-.7"/><path class="cls-1" d="M103.8,115.1a23.5,23.5,0,0,0,6.8,15.9c1.4,1.4,7.2,7.1,15.7,6.2a18.4,18.4,0,0,0,11.7-5.9c.8-.9,7.5-8.4,4.3-16.7-1.6-4-5.6-8.8-11.6-9a12.1,12.1,0,0,0-11.5,7.2c-.3.6-2.4,5.6.5,9.6.2.2,3.2,4.1,7.8,3.3a7.6,7.6,0,0,0,6.2-5.7c.2-.7.9-4.1-1.6-6.1a5.1,5.1,0,0,0-6.3-.2,3.9,3.9,0,0,0-1.5,3.2c0,.3.2.6.2.8"/><path class="cls-1" d="M24.4,123a22.6,22.6,0,0,0,6.8,15.8c1.4,1.4,7.2,7.1,15.7,6.2a18.7,18.7,0,0,0,11.7-5.9c.8-.8,7.4-8.4,4.2-16.7-1.5-3.9-5.5-8.8-11.5-9s-9.7,2.8-11.5,7.2c-.3.7-2.5,5.6.5,9.6.1.2,3.2,4.1,7.8,3.3a7.7,7.7,0,0,0,6.2-5.7c.2-.6.9-4.1-1.6-6.1a5.3,5.3,0,0,0-6.3-.2,4.1,4.1,0,0,0-1.5,3.2,1.9,1.9,0,0,0,.2.8"/><path class="cls-1" d="M190.7,159.7a23.2,23.2,0,0,0-16-6.5c-2,.1-10.2.2-15.6,6.8a19.3,19.3,0,0,0-4.1,12.4c.1,1.2.7,11.2,8.9,14.8,3.8,1.8,10.1,2.3,14.5-1.8a12.3,12.3,0,0,0,3.1-13.2c-.3-.7-2.3-5.7-7.2-6.4-.2,0-5.1-.7-7.8,3.1a7.7,7.7,0,0,0-.4,8.5c.3.6,2.3,3.5,5.4,3.2a5.1,5.1,0,0,0,4.6-4.4,3.8,3.8,0,0,0-1.1-3.3l-.8-.4"/><path class="cls-1" d="M107,101c-1.8,0-9.7.1-16.2-5.9-1.5-1.4-7.5-6.9-7-15.4a18.5,18.5,0,0,1,5.2-12c.9-.9,8-7.9,16.5-5.1,4,1.3,9.1,5,9.6,11a12.2,12.2,0,0,1-6.6,11.9c-.6.3-5.5,2.7-9.6,0-.2-.1-4.2-3-3.7-7.6a7.5,7.5,0,0,1,5.3-6.5c.7-.2,4.1-1.1,6.2,1.2a5.3,5.3,0,0,1,.5,6.4,4,4,0,0,1-3,1.6l-.8-.2"/></svg>