<?xml version="1.0" encoding="utf-8"?>
<!-- Generator: Adobe Illustrator 26.0.0, SVG Export Plug-In . SVG Version: 6.00 Build 0)  -->
<svg version="1.1" id="Layer_1" xmlns="http://www.w3.org/2000/svg" xmlns:xlink="http://www.w3.org/1999/xlink" x="0px" y="0px"
	 viewBox="0 0 240 240" style="enable-background:new 0 0 240 240; fill:#000;" xml:space="preserve">
<path d="M58.6,25.8c-2.1-3.7-0.9-8.4,2.8-10.5c3.7-2.1,8.4-0.9,10.5,2.8c0,0,0,0,0,0l9.9,17.1c2.1,3.7,0.9,8.4-2.8,10.5
	c-3.7,2.1-8.4,0.9-10.5-2.8c0,0,0,0,0,0L58.6,25.8L58.6,25.8z M120,51.2c19,0,36.2,7.7,48.7,20.2c12.4,12.5,20.2,29.7,20.2,48.7
	c0,19-7.7,36.2-20.2,48.7S139,188.8,120,188.8s-36.2-7.7-48.7-20.2C58.9,156.2,51.2,139,51.2,120s7.7-36.2,20.2-48.7
	C83.8,58.9,101,51.2,120,51.2z M158.3,81.7c-9.8-9.8-23.3-15.8-38.3-15.8c-14.9,0-28.5,6.1-38.3,15.8S65.9,105,65.9,120
	s6.1,28.5,15.8,38.3c9.8,9.8,23.3,15.9,38.3,15.9s28.5-6.1,38.3-15.9c9.8-9.8,15.9-23.3,15.9-38.3C174.1,105,168.1,91.5,158.3,81.7z
	 M113.9,7.7c0-4.3,3.4-7.7,7.7-7.7s7.7,3.5,7.7,7.7v19.7c0,4.3-3.4,7.7-7.7,7.7s-7.7-3.5-7.7-7.7C113.9,27.5,113.9,7.7,113.9,7.7z
	 M170.9,19.7c2.1-3.7,6.8-4.9,10.5-2.8c3.7,2.1,4.9,6.8,2.8,10.5l-9.9,17.1c-2.1,3.7-6.8,4.9-10.5,2.8c-3.7-2.1-4.9-6.8-2.8-10.5
	C161,36.8,170.9,19.7,170.9,19.7z M214.2,58.6c3.7-2.1,8.4-0.9,10.5,2.8c2.1,3.7,0.9,8.4-2.8,10.5l-17.1,9.9
	c-3.7,2.1-8.4,0.9-10.5-2.8c-2.1-3.7-0.9-8.4,2.8-10.5c0,0,0,0,0,0L214.2,58.6L214.2,58.6z M232.3,113.9c4.3,0,7.7,3.4,7.7,7.7
	s-3.4,7.7-7.7,7.7h-19.8c-4.3,0-7.7-3.4-7.7-7.7s3.4-7.7,7.7-7.7H232.3z M220.3,170.9c3.7,2.1,4.9,6.8,2.8,10.5
	c-2.1,3.7-6.8,4.9-10.5,2.8l-17.1-9.9c-3.7-2.1-4.9-6.8-2.8-10.5c2.1-3.7,6.8-4.9,10.5-2.8L220.3,170.9z M181.4,214.2
	c2.1,3.7,0.9,8.4-2.8,10.5c-3.7,2.1-8.4,0.9-10.5-2.8c0,0,0,0,0,0l-9.9-17.1c-2.1-3.7-0.9-8.4,2.8-10.5c3.7-2.1,8.4-0.9,10.5,2.8
	c0,0,0,0,0,0L181.4,214.2z M126.1,232.3c0,4.3-3.4,7.7-7.7,7.7s-7.7-3.4-7.7-7.7v-19.8c0-4.3,3.4-7.7,7.7-7.7s7.7,3.4,7.7,7.7V232.3
	z M69.1,220.3c-2.1,3.7-6.8,4.9-10.5,2.8c-3.7-2.1-4.9-6.8-2.8-10.5l9.9-17.1c2.1-3.7,6.8-4.9,10.5-2.8c3.7,2.1,4.9,6.8,2.8,10.5
	C79,203.2,69.1,220.3,69.1,220.3z M25.8,181.4c-3.7,2.1-8.4,0.9-10.5-2.8c-2.1-3.7-0.9-8.4,2.8-10.5c0,0,0,0,0,0l17.1-9.9
	c3.7-2.1,8.4-0.9,10.5,2.8s0.9,8.4-2.8,10.5C42.9,171.6,25.8,181.4,25.8,181.4z M7.7,126.1c-4.3,0-7.7-3.4-7.7-7.7s3.5-7.7,7.7-7.7
	h19.8c4.3,0,7.7,3.4,7.7,7.7s-3.5,7.7-7.7,7.7H7.7L7.7,126.1z M19.7,69.1c-3.7-2.1-4.9-6.8-2.8-10.5c2.1-3.7,6.8-4.9,10.5-2.8
	l17.1,9.9c3.7,2.1,4.9,6.8,2.8,10.5c-2.1,3.7-6.8,4.9-10.5,2.8C36.8,79,19.7,69.1,19.7,69.1z"/>
</svg>
